<svg xmlns="http://www.w3.org/2000/svg" xmlns:xlink="http://www.w3.org/1999/xlink" viewBox="0 0 206 207.5" version="1.1"
    x="0px" y="0px">
    <title>market</title>
    <desc>Created with Sketch.</desc>
    <g stroke="none" stroke-width="1" fill="none" fill-rule="evenodd">
        <g fill="#000000" fill-rule="nonzero">
            <path
                d="M182.980936,165.5 L22.1840637,165.5 C20.7928232,165.5 19.665,164.463622 19.665,163.185185 L19.665,78 L24.7031274,78 L24.7031274,160.87037 L180.461873,160.87037 L180.461873,78 L185.5,78 L185.5,163.185185 C185.5,164.463622 184.372177,165.5 182.980936,165.5 Z" />
            <path
                d="M57.09,81.45 L48.91,81.45 C40.5861139,81.4389823 33.8410177,74.6938861 33.83,66.37 L33.83,60 C33.83,58.6192881 34.9492881,57.5 36.33,57.5 L69.67,57.5 C71.0507119,57.5 72.17,58.6192881 72.17,60 L72.17,66.41 C72.136994,74.7182609 65.3983192,81.4390612 57.09,81.45 Z M38.83,62.45 L38.83,66.36 C38.8410039,71.9224659 43.3475341,76.4289961 48.91,76.44 L57.09,76.44 C62.6524659,76.4289961 67.1589961,71.9224659 67.17,66.36 L67.17,62.45 L38.83,62.45 Z" />
            <path
                d="M69.67,62.46 L36.33,62.46 C35.5674515,62.4587336 34.8471749,62.1095106 34.373908,61.5115973 C33.9006411,60.9136839 33.7261376,60.1324646 33.9,59.39 L47.23,2.39 C47.4985175,1.2594152 48.5079661,0.460957867 49.67,0.46 L76.33,0.46 C77.0436909,0.461232088 77.7231113,0.766225605 78.1983276,1.29869687 C78.6735439,1.83116813 78.8996161,2.54076277 78.82,3.25 L72.15,60.25 C71.9987435,61.5065635 70.9356199,62.4539438 69.67,62.46 Z M39.49,57.46 L67.49,57.46 L73.57,5.46 L51.65,5.46 L39.49,57.46 Z" />
            <path
                d="M23.75,81.45 L15.58,81.45 C7.25611394,81.4389823 0.511017733,74.6938861 0.5,66.37 L0.5,60 C0.5,58.6192881 1.61928813,57.5 3,57.5 L36.33,57.5 C37.7107119,57.5 38.83,58.6192881 38.83,60 L38.83,66.41 C38.796994,74.7182609 32.0583192,81.4390612 23.75,81.45 Z M5.5,62.45 L5.5,66.36 C5.51100392,71.9224659 10.0175341,76.4289961 15.58,76.44 L23.75,76.44 C29.3124659,76.4289961 33.8189961,71.9224659 33.83,66.36 L33.83,62.45 L5.5,62.45 Z" />
            <path
                d="M36.33,62.46 L3,62.46 C2.19045163,62.4560435 1.4325119,62.0618676 0.964408226,61.4013653 C0.496304556,60.7408631 0.375513203,59.8951346 0.64,59.13 L20.64,2.13 C21.005772,1.1445607 21.9488896,0.493170128 23,0.5 L49.67,0.5 C50.4325485,0.501266449 51.1528251,0.850489437 51.626092,1.44840274 C52.0993589,2.04631605 52.2738624,2.82753536 52.1,3.57 L38.77,60.57 C38.4858575,61.6846964 37.4803358,62.4635636 36.33,62.46 Z M6.53,57.46 L34.35,57.46 L46.51,5.46 L24.77,5.46 L6.53,57.46 Z" />
            <path
                d="M90.42,81.45 L82.25,81.45 C73.9261139,81.4389823 67.1810177,74.6938861 67.17,66.37 L67.17,60 C67.17,58.6192881 68.2892881,57.5 69.67,57.5 L103,57.5 C104.380712,57.5 105.5,58.6192881 105.5,60 L105.5,66.41 C105.466994,74.7182609 98.7283192,81.4390612 90.42,81.45 Z M72.17,62.45 L72.17,66.36 C72.1810039,71.9224659 76.6875341,76.4289961 82.25,76.44 L90.42,76.44 C95.9824659,76.4289961 100.488996,71.9224659 100.5,66.36 L100.5,62.45 L72.17,62.45 Z" />
            <path
                d="M103,62.46 L69.67,62.46 C68.9563091,62.4587679 68.2768887,62.1537744 67.8016724,61.6213031 C67.3264561,61.0888319 67.1003839,60.3792372 67.18,59.67 L73.85,2.67 C74.0012565,1.41343652 75.0643801,0.466056228 76.33,0.46 L103,0.46 C104.380712,0.46 105.5,1.57928813 105.5,2.96 L105.5,59.96 C105.5,61.3407119 104.380712,62.46 103,62.46 Z M72.48,57.46 L100.48,57.46 L100.48,5.46 L78.56,5.46 L72.48,57.46 Z" />
            <path
                d="M123.75,81.45 L115.58,81.45 C107.256114,81.4389823 100.511018,74.6938861 100.5,66.37 L100.5,60 C100.5,58.6192881 101.619288,57.5 103,57.5 L136.33,57.5 C137.710712,57.5 138.83,58.6192881 138.83,60 L138.83,66.41 C138.796994,74.7182609 132.058319,81.4390612 123.75,81.45 Z M105.5,62.45 L105.5,66.36 C105.511004,71.9224659 110.017534,76.4289961 115.58,76.44 L123.75,76.44 C129.312466,76.4289961 133.818996,71.9224659 133.83,66.36 L133.83,62.45 L105.5,62.45 Z" />
            <path
                d="M136.33,62.46 L103,62.46 C101.619288,62.46 100.5,61.3407119 100.5,59.96 L100.5,3 C100.5,1.61928813 101.619288,0.5 103,0.5 L129.67,0.5 C130.93562,0.506056228 131.998743,1.45343652 132.15,2.71 L138.82,59.71 C138.899616,60.4192372 138.673544,61.1288319 138.198328,61.6613031 C137.723111,62.1937744 137.043691,62.4987679 136.33,62.5 L136.33,62.46 Z M105.5,57.46 L133.5,57.46 L127.42,5.46 L105.5,5.46 L105.5,57.46 Z" />
            <path
                d="M157.09,81.45 L148.91,81.45 C140.586114,81.4389823 133.841018,74.6938861 133.83,66.37 L133.83,60 C133.83,58.6192881 134.949288,57.5 136.33,57.5 L169.67,57.5 C171.050712,57.5 172.17,58.6192881 172.17,60 L172.17,66.41 C172.136994,74.7182609 165.398319,81.4390612 157.09,81.45 Z M138.83,62.45 L138.83,66.36 C138.841004,71.9224659 143.347534,76.4289961 148.91,76.44 L157.09,76.44 C162.652466,76.4289961 167.158996,71.9224659 167.17,66.36 L167.17,62.45 L138.83,62.45 Z" />
            <path
                d="M169.67,62.46 L136.33,62.46 C135.06438,62.4539438 134.001257,61.5065635 133.85,60.25 L127.18,3.25 C127.100384,2.54076277 127.326456,1.83116813 127.801672,1.29869687 C128.276889,0.766225605 128.956309,0.461232088 129.67,0.46 L156.33,0.46 C157.492034,0.460957867 158.501483,1.2594152 158.77,2.39 L172.1,59.39 C172.273862,60.1324646 172.099359,60.9136839 171.626092,61.5115973 C171.152825,62.1095106 170.432549,62.4587336 169.67,62.46 Z M138.56,57.46 L166.51,57.46 L154.35,5.46 L132.48,5.46 L138.56,57.46 Z" />
            <path
                d="M190.42,81.45 L182.25,81.45 C173.926114,81.4389823 167.181018,74.6938861 167.17,66.37 L167.17,60 C167.17,58.6192881 168.289288,57.5 169.67,57.5 L203,57.5 C204.380712,57.5 205.5,58.6192881 205.5,60 L205.5,66.41 C205.466994,74.7182609 198.728319,81.4390612 190.42,81.45 Z M172.17,62.45 L172.17,66.36 C172.181004,71.9224659 176.687534,76.4289961 182.25,76.44 L190.42,76.44 C195.982466,76.4289961 200.488996,71.9224659 200.5,66.36 L200.5,62.45 L172.17,62.45 Z" />
            <path
                d="M203,62.46 L169.67,62.46 C168.507966,62.4590421 167.498517,61.6605848 167.23,60.53 L153.9,3.53 C153.726138,2.78753536 153.900641,2.00631605 154.373908,1.40840274 C154.847175,0.810489437 155.567451,0.461266449 156.33,0.46 L183,0.46 C184.061416,0.459235225 185.00761,1.12878769 185.36,2.13 L205.36,59.13 C205.624487,59.8951346 205.503695,60.7408631 205.035592,61.4013653 C204.567488,62.0618676 203.809548,62.4560435 203,62.46 Z M171.65,57.46 L199.47,57.46 L181.23,5.46 L159.49,5.46 L171.65,57.46 Z" />
            <path
                d="M92,165.5 L64.48,165.5 C63.8196093,165.497353 63.1873185,165.232473 62.7222271,164.763631 C62.2571358,164.294789 61.9973425,163.660391 62,163 L62,96.5 C61.9973285,95.8361434 62.2598627,95.1987053 62.729284,94.729284 C63.1987053,94.2598627 63.8361434,93.9973285 64.5,94 L92,94 C93.3807119,94 94.5,95.1192881 94.5,96.5 L94.5,163 C94.5,163.663041 94.2366079,164.298926 93.767767,164.767767 C93.298926,165.236608 92.6630412,165.5 92,165.5 Z M67,160.5 L89.5,160.5 L89.5,99 L67,99 L67,160.5 Z" />
            <path
                d="M64.48,165.5 L37,165.5 C35.6192881,165.5 34.5,164.380712 34.5,163 L34.5,96.5 C34.5,95.1192881 35.6192881,94 37,94 L64.48,94 C65.8607119,94 66.98,95.1192881 66.98,96.5 L66.98,163 C66.98,164.380712 65.8607119,165.5 64.48,165.5 Z M39.48,160.5 L62,160.5 L62,99 L39.45,99 L39.48,160.5 Z" />
            <path
                d="M171.52,139.84 L103.21,139.84 C101.829288,139.84 100.71,138.720712 100.71,137.34 L100.71,96.5 C100.71,95.1192881 101.829288,94 103.21,94 L171.52,94 C172.900712,94 174.02,95.1192881 174.02,96.5 L174.02,137.34 C174.02,138.720712 172.900712,139.84 171.52,139.84 Z M105.71,134.84 L169,134.84 L169,99 L105.71,99 L105.71,134.84 Z" />
            <path
                d="M171.52,149.5 L103.21,149.5 C101.829288,149.5 100.71,148.380712 100.71,147 L100.71,137.34 C100.71,135.959288 101.829288,134.84 103.21,134.84 L171.52,134.84 C172.900712,134.84 174.02,135.959288 174.02,137.34 L174.02,147 C174.02,148.380712 172.900712,149.5 171.52,149.5 Z M105.71,144.5 L169,144.5 L169,139.84 L105.71,139.84 L105.71,144.5 Z" />
            <rect x="7" y="160.5" width="192" height="5" />
        </g>
    </g>
</svg>